# xmcd
#
# Track frame offsets: 
#        150
#        16870
#        33621
#        50507
#        67228
#        84077
#        101062
#        117917
#        134757
#        150995
#        168044
#        184631
#        201874
#        218820
#        235701
#        252535
#        268554
#        285660
#        298277
#        314815
#
# Disc length: 4422 seconds
#
# Revision: 0
# Processed by: cddbd v1.5.2PL0 Copyright (c) Steve Scherf et al.
# Submitted via: ExactAudioCopy v0.99pb4
#
DISCID=2b114414
DTITLE=Various Artist - The Very Best of Rare Groove - Volumes 1 and 2
DYEAR=1900
DGENRE=Rare Groove
TTITLE0=Guinn - Give Everything
TTITLE1=Natural Four - Try Love Again
TTITLE2=Debra Laws - Very Special
TTITLE3=L.A. Boppers - You Did It Good
TTITLE4=Karin Jones - Ready, Ready Love
TTITLE5=Tracy Spurlin - If You Could Read My Mind
TTITLE6=Brenda Russell - A Little Bit of Love
TTITLE7=Fathers Children - Hollywood Dreaming
TTITLE8=Side Effects - S.O.S.
TTITLE9=Paris - I Choose You
TTITLE10=Ben E. King - Street Tough
TTITLE11=George Howard - Shower You With Love
TTITLE12=Don Blackman - Holding You
TTITLE13=Yarborough and Peoples - Special
TTITLE14=Bobby Womack - How Could You Break My Heart
TTITLE15=Collage - Get In Touch
TTITLE16=Denice Williams - Cos You Love Me Baby
TTITLE17=Jean Carn - Early Morning Love
TTITLE18=Dynasty - Adventures in the Land of Music
TTITLE19=Obsession - I Want to Know
EXTD=
EXTT0=
EXTT1=
EXTT2=
EXTT3=
EXTT4=
EXTT5=
EXTT6=
EXTT7=
EXTT8=
EXTT9=
EXTT10=
EXTT11=
EXTT12=
EXTT13=
EXTT14=
EXTT15=
EXTT16=
EXTT17=
EXTT18=
EXTT19=
PLAYORDER=
